<svg version="1.1" id="Layer_1" xmlns="http://www.w3.org/2000/svg" xmlns:xlink="http://www.w3.org/1999/xlink" x="0px" y="0px"
	 width="100%" viewBox="0 0 512 512" enable-background="new 0 0 512 512" xml:space="preserve">
<path fill="#000000" opacity="1.000000" stroke="none" 
	d="
M248.000000,513.000000 
	C165.353378,513.000000 83.206757,513.000000 1.030068,513.000000 
	C1.030068,342.395020 1.030068,171.790039 1.030068,1.092523 
	C171.563309,1.092523 342.126678,1.092523 512.845032,1.092523 
	C512.845032,171.666565 512.845032,342.333252 512.845032,513.000000 
	C424.790009,513.000000 336.644989,513.000000 248.000000,513.000000 
M193.556305,159.056274 
	C158.202957,194.398895 122.839119,229.731049 87.517189,265.105042 
	C84.837349,267.788818 82.278053,270.633331 79.964806,273.635864 
	C69.484642,287.238800 70.928535,308.389862 83.062576,320.558929 
	C87.415833,324.924805 91.780373,329.279449 96.140266,333.638672 
	C110.856789,348.353027 134.229843,348.269684 149.053360,333.446747 
	C186.169373,296.332123 223.282272,259.214355 260.405334,222.106781 
	C261.878815,220.633926 263.443695,219.252502 265.788452,217.059097 
	C267.508270,219.258209 268.684998,221.131165 270.208893,222.657562 
	C307.175995,259.685425 344.119385,296.737366 381.216766,333.634430 
	C391.521942,343.884033 404.082306,346.998749 418.085388,343.010681 
	C432.397339,338.934631 441.351532,327.558746 449.742950,316.743469 
	C462.035034,300.900787 458.949158,281.378326 443.672028,266.087036 
	C394.797821,217.167496 345.903839,168.267715 296.950409,119.427528 
	C293.806854,116.291237 290.384552,113.238716 286.595947,110.978615 
	C270.529846,101.394318 248.453476,103.452789 234.609711,117.812401 
	C221.311874,131.605759 207.591187,144.991455 193.556305,159.056274 
z"/>
<path fill="#515151" opacity="1.000000" stroke="none" 
	d="
M193.806305,158.806274 
	C207.591187,144.991455 221.311874,131.605759 234.609711,117.812401 
	C248.453476,103.452789 270.529846,101.394318 286.595947,110.978615 
	C290.384552,113.238716 293.806854,116.291237 296.950409,119.427528 
	C345.903839,168.267715 394.797821,217.167496 443.672028,266.087036 
	C458.949158,281.378326 462.035034,300.900787 449.742950,316.743469 
	C441.351532,327.558746 432.397339,338.934631 418.085388,343.010681 
	C404.082306,346.998749 391.521942,343.884033 381.216766,333.634430 
	C344.119385,296.737366 307.175995,259.685425 270.208893,222.657562 
	C268.684998,221.131165 267.508270,219.258209 265.788452,217.059097 
	C263.443695,219.252502 261.878815,220.633926 260.405334,222.106781 
	C223.282272,259.214355 186.169373,296.332123 149.053360,333.446747 
	C134.229843,348.269684 110.856789,348.353027 96.140266,333.638672 
	C91.780373,329.279449 87.415833,324.924805 83.062576,320.558929 
	C70.928535,308.389862 69.484642,287.238800 79.964806,273.635864 
	C82.278053,270.633331 84.837349,267.788818 87.517189,265.105042 
	C122.839119,229.731049 158.202957,194.398895 193.806305,158.806274 
z"/>
</svg>